# xmcd CD database file
#
# Track frame offsets:
#	150
#	14302
#	22869
#	31430
#	42367
#	47160
#	50787
#	59477
#	74720
#	83145
#	89620
#	96340
#	101042
#	108550
#	124785
#	129922
#
# Disc length: 1844 seconds
#
# Revision: 0
# Processed by: cddbd v1.4PL0 Copyright (c) Steve Scherf et al.
# Submitted via: CDex 1.50beta8
#
DISCID=e3073210
DTITLE=bola de nieve - interpreta ignacio villa
DYEAR=1996
DGENRE=Salsa
TTITLE0=drume mobille
TTITLE1=yambambo
TTITLE2=botellero
TTITLE3=carlota ta mori
TTITLE4=manda conmigo pape
TTITLE5=lo decembre congelat
TTITLE6=mama perfecta
TTITLE7=ay venga paloma venga
TTITLE8=becqueriana
TTITLE9=pero tu nunca comprenderas
TTITLE10=cancion de la barca
TTITLE11=pobrecitos mi recuerdos
TTITLE12=ni quiero que me odies
TTITLE13=arroyito de mi casa
TTITLE14=aunque llegues o odiarme
TTITLE15=dejame recordar
EXTD=YEAR: 1996
EXTT0=
EXTT1=
EXTT2=
EXTT3=
EXTT4=
EXTT5=
EXTT6=
EXTT7=
EXTT8=
EXTT9=
EXTT10=
EXTT11=
EXTT12=
EXTT13=
EXTT14=
EXTT15=
PLAYORDER=
